<svg width="50" height="50" viewBox="0 0 50 50" fill="none" xmlns="http://www.w3.org/2000/svg">
<path d="M18.4216 21.0515C24.2356 21.0515 28.9487 16.339 28.9487 10.5258C28.9487 4.71254 24.2356 0 18.4216 0C12.6077 0 7.89453 4.71254 7.89453 10.5258C7.89453 16.339 12.6077 21.0515 18.4216 21.0515Z" fill="#454551"/>
<path d="M18.4224 50C28.5968 50 36.8448 45.2875 36.8448 39.4742C36.8448 33.661 28.5968 28.9485 18.4224 28.9485C8.24799 28.9485 0 33.661 0 39.4742C0 45.2875 8.24799 50 18.4224 50Z" fill="#454551"/>
<path d="M50.0003 39.4729C50.0003 43.8327 44.6433 47.367 38.1025 47.367C40.0295 45.2611 41.3546 42.6175 41.3546 39.4764C41.3546 36.3318 40.0264 33.6859 38.0957 31.5786C44.6364 31.5786 50.0003 35.1129 50.0003 39.4729Z" fill="#454551"/>
<path d="M42.1038 10.5277C42.1038 14.8876 38.5691 18.422 34.2085 18.422C33.2576 18.422 32.3462 18.254 31.502 17.9459C32.747 15.7563 33.4582 13.2236 33.4582 10.5248C33.4582 7.82793 32.7481 5.29693 31.5046 3.10844C32.3481 2.80106 33.2587 2.63336 34.2085 2.63336C38.5691 2.63336 42.1038 6.16778 42.1038 10.5277Z" fill="#454551"/>
</svg>
