<svg width="50" height="37" viewBox="0 0 50 37" fill="none" xmlns="http://www.w3.org/2000/svg">
<path d="M29.3356 3.56596C28.606 3.49054 27.6621 3.48837 26.2277 3.48837H25C24.0367 3.48837 23.2558 2.70749 23.2558 1.74419C23.2558 0.780909 24.0367 2.01295e-06 25 2.01295e-06H26.3135C27.6391 -4.44987e-05 28.7644 -6.81122e-05 29.6944 0.0960947C30.6846 0.198467 31.5998 0.420792 32.4644 0.955141C33.3291 1.48949 33.9372 2.20863 34.4716 3.04856C34.9428 3.78914 35.4151 4.72163 35.9616 5.81396H38.647C39.3072 5.81391 39.9133 5.81386 40.4181 5.85924C40.964 5.90826 41.5588 6.02089 42.1347 6.34975C42.7663 6.71044 43.2895 7.23377 43.6502 7.86533C43.9791 8.44112 44.0919 9.03603 44.1409 9.58179C44.1863 10.0868 44.186 10.6929 44.186 11.353V11.4203L44.1863 11.5704C44.1877 12.1745 44.1893 12.8213 43.993 13.4351C43.8619 13.8463 43.6658 14.234 43.4128 14.5837C43.0349 15.1056 42.5133 15.4879 42.026 15.8451L41.9049 15.934L41.2595 16.4095L42.3923 18.6751C46.683 19.2216 50 22.8863 50 27.3256C50 32.1421 46.0956 36.0465 41.2791 36.0465C37.06 36.0465 33.5407 33.0505 32.7326 29.0698H20.7558C19.9478 33.0505 16.4284 36.0465 12.2093 36.0465C7.98288 36.0465 4.45865 33.04 3.65867 29.0491C1.70632 28.8514 0.167231 27.2844 0.0125795 25.3193C-0.000187919 25.157 -9.47625e-05 24.9814 2.15165e-05 24.8123L4.48039e-05 24.7674L2.15165e-05 24.6788C-2.49951e-05 23.8998 -4.82815e-05 23.4042 0.0340913 22.9705C0.460417 17.5535 4.7629 13.2511 10.1798 12.8247C10.6135 12.7906 11.109 12.7907 11.8881 12.7907H11.9768H13.493C15.5825 12.7906 17.3249 12.7906 18.7081 12.9765C20.1681 13.1728 21.4863 13.6047 22.5456 14.664C23.6046 15.723 24.0365 17.0412 24.2328 18.5012C24.4188 19.8844 24.4186 21.6267 24.4186 23.7163V25.5814H32.7326C33.3658 22.4626 35.663 19.9481 38.6574 19.0056L32.9879 7.66642C32.3463 6.38342 31.9223 5.54 31.5286 4.92121C31.1565 4.33651 30.8898 4.08284 30.6305 3.92254C30.3712 3.76223 30.0251 3.63723 29.3356 3.56596Z" fill="#454551"/>
</svg>
