<svg width="43" height="50" viewBox="0 0 43 50" fill="none" xmlns="http://www.w3.org/2000/svg">
<path d="M7.5 7.0734C7.5 10.9429 11.8148 15.019 15.3743 17.7233C17.3723 19.2411 18.371 20 20 20C21.629 20 22.628 19.2411 24.6258 17.7233C28.1853 15.0191 32.5 10.9429 32.5 7.07337C32.5 0.0979477 25.6248 -2.50635 20 2.88212C14.3752 -2.50635 7.5 0.0979477 7.5 7.0734Z" fill="#454551"/>
<path d="M5.64983 48.471H5C2.64298 48.471 1.46448 48.471 0.732225 47.7388C1.49012e-07 47.0065 0 45.828 0 43.471V40.691C0 39.3948 3.35276e-07 38.7468 0.33295 38.168C0.665901 37.589 1.16818 37.297 2.17275 36.7128C8.78643 32.866 18.1788 30.7008 24.4478 34.4398C24.8688 34.691 25.2478 34.9943 25.5713 35.3578C26.9665 36.925 26.865 39.2903 25.257 40.6938C24.9173 40.99 24.5555 41.215 24.191 41.293C24.4905 41.2583 24.7775 41.2185 25.0515 41.1748C27.33 40.8113 29.2425 39.5938 30.9935 38.271L35.5115 34.8583C37.1043 33.655 39.4683 33.6548 41.0613 34.8575C42.4955 35.9405 42.934 37.7235 42.0273 39.1768C40.97 40.8718 39.4803 43.04 38.0498 44.3648C36.6173 45.6915 34.4848 46.876 32.7438 47.7163C30.815 48.6473 28.6845 49.1835 26.5173 49.5345C22.122 50.2458 17.5415 50.1373 13.1908 49.241C10.7313 48.7343 8.17698 48.471 5.64983 48.471Z" fill="#454551"/>
</svg>
