<svg width="216" height="44" viewBox="0 0 216 44" fill="none" xmlns="http://www.w3.org/2000/svg">
<path d="M52.9087 8.74971C50.5941 9.8018 48.995 12.2006 48.995 14.5993C48.995 16.7035 49.7104 18.2185 51.4779 19.9018L52.7825 21.1222L51.1412 22.5531C49.0371 24.3206 47.9429 27.3506 48.3637 30.086C48.6162 31.8956 48.5741 31.9797 47.8166 31.5589C46.9329 31.096 38.895 21.3747 38.895 20.7856C38.895 19.986 44.45 13.926 45.4179 13.6735C47.5641 13.1264 46.3858 12.5793 43.1033 12.5793C39.8208 12.5793 38.6425 13.1264 40.7887 13.6735C41.3779 13.7997 41.8408 14.0943 41.8408 14.3047C41.8408 15.1043 37.0012 20.5751 36.2858 20.5751C35.6545 20.5751 35.5283 20.1964 35.5283 18.1343C35.5283 14.8939 35.865 13.9681 37.0433 13.6735C39.2737 13.0843 37.927 12.5793 34.2658 12.5793C30.6466 12.5793 29.4262 13.0422 31.4462 13.6735C31.9512 13.8418 32.4983 14.1785 32.6666 14.431C33.1716 15.1464 33.0454 27.2664 32.5824 28.1922C32.3299 28.6131 31.7408 28.9918 31.3199 28.9918C30.857 28.9918 30.4783 29.2864 30.4783 29.6231C30.4783 30.1281 31.1937 30.2543 34.2658 30.2543C37.3379 30.2543 38.0533 30.1281 38.0533 29.6231C38.0533 29.2864 37.6745 28.9918 37.2116 28.9918C36.1175 28.9918 35.5283 27.4768 35.5283 24.531C35.5283 22.8056 35.6966 22.2585 36.1595 22.2585C36.4962 22.2585 36.9591 22.6372 37.2116 23.1001C37.885 24.4047 44.4079 32.4427 45.5441 33.4947C46.5962 34.3785 50.1733 35.5568 50.5941 35.136C50.7204 35.0097 51.4358 35.3043 52.1933 35.7672C54.2133 36.9877 57.7904 37.2822 60.105 36.3985C63.8925 34.9256 66.3333 30.8014 65.4496 27.4347C64.7342 24.8256 63.2192 23.2685 57.9166 19.8597C52.53 16.3668 51.6462 15.1464 52.4037 12.411C52.9087 10.6014 54.4658 9.63346 56.9487 9.63346C60.7783 9.63346 62.7983 13.9681 60.8204 17.7976C60.3575 18.7235 60.0208 19.5231 60.105 19.6493C60.5679 20.0701 62.1671 19.1022 63.2192 17.7556C64.6921 15.8197 64.8183 12.8318 63.4717 11.0222C61.4096 8.20263 56.4858 7.15055 52.9087 8.74971ZM59.0108 25.0781C61.115 26.8035 62.0408 28.4027 62.0408 30.4227C62.0408 33.4947 58.2954 35.9356 55.1391 34.8835C53.4979 34.3364 53.2875 33.9997 54.2554 33.2002C54.8866 32.6952 55.1391 31.096 54.5921 31.096C54.4658 31.096 54.0029 31.3906 53.5821 31.7693C52.4879 32.7372 51.6462 32.2322 51.0991 30.3806C50.4258 28.1502 51.1833 25.4568 52.9929 23.6472L54.4237 22.2164L55.8125 22.9318C56.57 23.3106 58.0008 24.2785 59.0108 25.0781Z" fill="#454551"/>
<path d="M19.0307 12.411C16.0428 13.3368 14.6119 15.7356 15.5799 18.2606C15.9586 19.2285 18.8624 21.0381 22.1869 22.4268C24.9224 23.6051 26.6899 25.1202 26.6899 26.3406C26.6899 27.4768 24.712 28.9077 22.8603 29.2022C20.2511 29.581 17.8944 28.6972 16.674 26.8877C15.2853 24.7835 14.7382 24.7414 15.1169 26.7193C15.5799 29.2022 15.9586 29.6652 18.0207 30.2122C22.0186 31.2222 25.8061 30.591 28.1207 28.5289C29.762 27.1402 30.2249 25.7514 29.6357 24.1943C29.0465 22.5531 27.4895 21.4168 22.7761 19.1022C17.9786 16.7456 17.3474 15.9039 19.3674 14.3047C21.3453 12.7476 24.9645 13.2526 27.1528 15.3568C28.4574 16.6193 28.8361 16.2826 28.3311 14.431C27.9945 13.2106 27.6999 13.0422 25.217 12.411C22.0186 11.6114 21.5978 11.6114 19.0307 12.411Z" fill="#454551"/>
<path d="M71.173 15.2726C68.143 16.3668 66.5859 18.5551 66.5859 21.7535C66.5859 25.2043 69.4476 27.7293 73.4034 27.7293C76.181 27.7293 78.0326 26.7193 79.6318 24.3626C80.9785 22.3847 80.768 19.0181 79.253 17.3768C77.1489 15.1043 73.9084 14.2626 71.173 15.2726ZM76.728 17.3768C79.5476 20.0701 79.1689 24.7835 76.0547 26.2564C72.3934 28.0239 68.3534 24.9097 68.3534 20.3226C68.3534 19.1443 68.6901 18.471 69.8264 17.3347C71.173 16.3757 72.001 16.0301 73.4455 16.0301C75.0026 16.1985 75.8864 16.5351 76.728 17.3768Z" fill="#454551"/>
<path d="M99.9572 15.1043C94.1497 16.4931 93.0134 24.1943 98.2318 26.9297C100.041 27.9397 103.282 27.9818 105.26 27.056C108.332 25.5831 109.721 21.1643 108.121 18.0501C106.901 15.7356 103.113 14.3468 99.9572 15.1043ZM104.166 16.6614C105.596 17.5031 107.069 20.2806 107.069 22.0901C107.069 24.9518 104.292 27.2664 101.43 26.7193C96.4643 25.7935 94.9914 17.8818 99.4943 16.2406C100.799 15.7776 102.987 15.9881 104.166 16.6614Z" fill="#454551"/>
<path d="M115.276 15.3147C110.941 16.8718 109.258 22.3426 112.204 25.4989C113.929 27.3506 115.36 27.8556 118.306 27.6031C121.588 27.3506 122.22 26.8877 122.22 24.5731C122.22 23.1001 122.388 22.7214 123.188 22.4689C123.987 22.1743 123.903 22.0901 122.514 21.9639C121.673 21.8797 120.326 21.8797 119.568 21.9639C118.39 22.0901 118.348 22.1743 119.148 22.4268C120.242 22.8056 120.873 25.3727 120.073 26.2985C119.4 27.1402 116.791 27.0139 115.234 26.0881C113.298 24.9097 112.246 21.9639 112.919 19.6493C113.719 16.956 115.023 15.946 117.633 15.946C119.484 15.946 119.947 16.1143 120.999 17.2506C122.178 18.5131 122.22 18.5551 122.22 17.5872C122.22 16.1143 121.799 15.6935 119.61 15.1885C117.212 14.5993 117.38 14.5572 115.276 15.3147Z" fill="#454551"/>
<path d="M81.1888 15.5251C81.3151 15.7356 81.8201 15.946 82.283 15.946C83.0405 15.946 83.0826 16.2826 83.0826 21.2485C83.0826 26.1722 83.0405 26.551 82.2409 26.7614C80.0526 27.3506 81.9042 27.7293 86.7859 27.7293H92.1305L93.0984 26.046C94.1926 24.1101 94.0243 23.9418 92.2568 25.4147C91.1205 26.3827 90.6576 26.5089 88.1747 26.3827L85.3972 26.2564L85.2709 21.2906L85.1447 16.3668L86.2388 15.946C86.828 15.7356 87.2909 15.441 87.2909 15.3147C87.2909 15.1885 85.8601 15.1043 84.0926 15.1043C82.1147 15.1043 81.0205 15.2726 81.1888 15.5251Z" fill="#454551"/>
<path d="M123.061 15.3568C123.061 15.4831 123.566 15.7356 124.239 15.9881C124.954 16.2406 126.048 17.461 127.395 19.4389C129.036 22.0481 129.373 22.8476 129.373 24.531C129.373 26.1722 129.205 26.5931 128.531 26.7614C126.848 27.2243 127.774 27.7293 130.215 27.7293C131.603 27.7293 132.74 27.561 132.74 27.3085C132.74 27.056 132.487 26.8877 132.151 26.8877C131.393 26.8877 131.056 25.9618 131.056 23.9839C131.056 22.1322 134.128 16.7876 135.601 16.1564C137.158 15.4831 136.653 15.1043 134.128 15.1043C131.856 15.1464 131.73 15.1885 132.529 15.7776C133.371 16.4089 133.371 16.4089 132.277 18.3447C131.688 19.4389 131.014 20.3647 130.804 20.4489C130.593 20.491 129.794 19.6072 129.036 18.4289C127.942 16.7456 127.732 16.1985 128.153 15.6935C128.573 15.1885 128.195 15.1043 125.838 15.1043C124.323 15.1043 123.061 15.1885 123.061 15.3568Z" fill="#454551"/>
<path d="M138.426 17H137.984V15.251H137.373V14.8862H139.039V15.251H138.426V17Z" fill="#454551"/>
<path d="M141.521 17H141.127V15.5732H141.116L140.542 16.9795H140.263L139.689 15.5732H139.677V17H139.283V14.8862H139.796L140.396 16.3848H140.408L141.009 14.8862H141.521V17Z" fill="#454551"/>
<path d="M154.646 17.119C154.592 17.209 154.532 17.278 154.466 17.326C154.406 17.368 154.331 17.389 154.241 17.389C154.139 17.389 154.019 17.338 153.881 17.236C153.743 17.134 153.569 17.023 153.359 16.903C153.155 16.777 152.906 16.663 152.612 16.561C152.324 16.459 151.973 16.408 151.559 16.408C151.169 16.408 150.824 16.462 150.524 16.57C150.23 16.672 149.981 16.813 149.777 16.993C149.579 17.173 149.429 17.386 149.327 17.632C149.225 17.872 149.174 18.133 149.174 18.415C149.174 18.775 149.261 19.075 149.435 19.315C149.615 19.549 149.849 19.75 150.137 19.918C150.431 20.086 150.761 20.233 151.127 20.359C151.499 20.479 151.877 20.605 152.261 20.737C152.651 20.869 153.029 21.019 153.395 21.187C153.767 21.349 154.097 21.556 154.385 21.808C154.679 22.06 154.913 22.369 155.087 22.735C155.267 23.101 155.357 23.551 155.357 24.085C155.357 24.649 155.261 25.18 155.069 25.678C154.877 26.17 154.595 26.599 154.223 26.965C153.857 27.331 153.404 27.619 152.864 27.829C152.33 28.039 151.721 28.144 151.037 28.144C150.197 28.144 149.435 27.994 148.751 27.694C148.067 27.388 147.482 26.977 146.996 26.461L147.5 25.633C147.548 25.567 147.605 25.513 147.671 25.471C147.743 25.423 147.821 25.399 147.905 25.399C147.983 25.399 148.07 25.432 148.166 25.498C148.268 25.558 148.382 25.636 148.508 25.732C148.634 25.828 148.778 25.933 148.94 26.047C149.102 26.161 149.285 26.266 149.489 26.362C149.699 26.458 149.936 26.539 150.2 26.605C150.464 26.665 150.761 26.695 151.091 26.695C151.505 26.695 151.874 26.638 152.198 26.524C152.522 26.41 152.795 26.251 153.017 26.047C153.245 25.837 153.419 25.588 153.539 25.3C153.659 25.012 153.719 24.691 153.719 24.337C153.719 23.947 153.629 23.629 153.449 23.383C153.275 23.131 153.044 22.921 152.756 22.753C152.468 22.585 152.138 22.444 151.766 22.33C151.394 22.21 151.016 22.09 150.632 21.97C150.248 21.844 149.87 21.7 149.498 21.538C149.126 21.376 148.796 21.166 148.508 20.908C148.22 20.65 147.986 20.329 147.806 19.945C147.632 19.555 147.545 19.075 147.545 18.505C147.545 18.049 147.632 17.608 147.806 17.182C147.986 16.756 148.244 16.378 148.58 16.048C148.922 15.718 149.339 15.454 149.831 15.256C150.329 15.058 150.899 14.959 151.541 14.959C152.261 14.959 152.915 15.073 153.503 15.301C154.097 15.529 154.619 15.859 155.069 16.291L154.646 17.119Z" fill="#454551"/>
<path d="M166.364 16.57H162.188V28H160.451V16.57H156.266V15.103H166.364V16.57Z" fill="#454551"/>
<path d="M179.433 21.556C179.433 22.522 179.28 23.41 178.974 24.22C178.668 25.024 178.236 25.717 177.678 26.299C177.12 26.881 176.448 27.334 175.662 27.658C174.882 27.976 174.018 28.135 173.07 28.135C172.122 28.135 171.258 27.976 170.478 27.658C169.698 27.334 169.029 26.881 168.471 26.299C167.913 25.717 167.481 25.024 167.175 24.22C166.869 23.41 166.716 22.522 166.716 21.556C166.716 20.59 166.869 19.705 167.175 18.901C167.481 18.091 167.913 17.395 168.471 16.813C169.029 16.225 169.698 15.769 170.478 15.445C171.258 15.121 172.122 14.959 173.07 14.959C174.018 14.959 174.882 15.121 175.662 15.445C176.448 15.769 177.12 16.225 177.678 16.813C178.236 17.395 178.668 18.091 178.974 18.901C179.28 19.705 179.433 20.59 179.433 21.556ZM177.642 21.556C177.642 20.764 177.534 20.053 177.318 19.423C177.102 18.793 176.796 18.262 176.4 17.83C176.004 17.392 175.524 17.056 174.96 16.822C174.396 16.588 173.766 16.471 173.07 16.471C172.38 16.471 171.753 16.588 171.189 16.822C170.625 17.056 170.142 17.392 169.74 17.83C169.344 18.262 169.038 18.793 168.822 19.423C168.606 20.053 168.498 20.764 168.498 21.556C168.498 22.348 168.606 23.059 168.822 23.689C169.038 24.313 169.344 24.844 169.74 25.282C170.142 25.714 170.625 26.047 171.189 26.281C171.753 26.509 172.38 26.623 173.07 26.623C173.766 26.623 174.396 26.509 174.96 26.281C175.524 26.047 176.004 25.714 176.4 25.282C176.796 24.844 177.102 24.313 177.318 23.689C177.534 23.059 177.642 22.348 177.642 21.556Z" fill="#454551"/>
<path d="M185.324 21.349C185.828 21.349 186.272 21.289 186.656 21.169C187.046 21.043 187.37 20.869 187.628 20.647C187.892 20.419 188.09 20.149 188.222 19.837C188.354 19.525 188.42 19.18 188.42 18.802C188.42 18.034 188.168 17.455 187.664 17.065C187.16 16.675 186.404 16.48 185.396 16.48H183.488V21.349H185.324ZM191.282 28H189.734C189.416 28 189.182 27.877 189.032 27.631L185.684 23.023C185.582 22.879 185.471 22.777 185.351 22.717C185.237 22.651 185.057 22.618 184.811 22.618H183.488V28H181.751V15.103H185.396C186.212 15.103 186.917 15.187 187.511 15.355C188.105 15.517 188.594 15.754 188.978 16.066C189.368 16.378 189.656 16.756 189.842 17.2C190.028 17.638 190.121 18.13 190.121 18.676C190.121 19.132 190.049 19.558 189.905 19.954C189.761 20.35 189.551 20.707 189.275 21.025C189.005 21.337 188.672 21.604 188.276 21.826C187.886 22.048 187.442 22.216 186.944 22.33C187.166 22.456 187.358 22.639 187.52 22.879L191.282 28Z" fill="#454551"/>
<path d="M200.812 26.578L200.803 28H192.856V15.103H200.803V16.525H194.602V20.809H199.624V22.177H194.602V26.578H200.812Z" fill="#454551"/>
<rect x="1" y="1" width="214" height="42" rx="21" stroke="#454551" stroke-width="2"/>
</svg>
